<svg width="46" height="60" viewBox="0 0 46 60" fill="none" xmlns="http://www.w3.org/2000/svg">
<path d="M8.77294 24.5721C8.77294 24.5721 5.71519 24.5828 2.66252 24.4773C1.77437 24.4498 0.889091 24.4127 0.0769985 24.3739C0.321072 20.1132 1.1529 16.518 2.41368 13.5096C4.29976 13.9124 5.89944 14.3178 5.89944 14.3178C5.89944 14.3178 4.34876 13.8142 2.5031 13.2904C5.79666 5.62818 11.8915 1.82857 18.0563 0.531592L18.7908 7.4439L18.5534 0.432061C22.0757 -0.232492 25.5968 -0.0942254 28.6072 0.599304C28.4092 1.48936 28.1582 2.57376 27.8816 3.65531C27.2461 6.1951 26.4751 8.70213 26.4751 8.70213C26.4751 8.70213 27.397 6.2458 28.1881 3.74097C28.5311 2.67454 28.849 1.60212 29.102 0.720564C30.955 1.19363 32.597 1.87771 33.8994 2.71265L29.6 15.4749C30.9037 15.7861 31.7009 16.0843 31.7009 16.0843L30.5184 20.1813C32.3099 21.3195 33.789 22.8722 34.807 24.6977C35.9386 23.5916 36.8461 22.2666 37.4616 20.7904C37.4616 21.0389 41.6051 47.0752 41.6051 47.0752L40.4735 46.1294L38.7173 37.3816L33.6318 35.4553C33.1994 37.345 34.2364 39.2621 36.0656 39.9535L38.4662 40.8612L40.1604 50.6884C40.8048 54.4275 42.9006 57.7689 46 60H44.3984C36.6581 60 29.3146 56.6105 24.3399 50.7413L24.6393 49.3416C25.1831 46.8003 25.0269 44.1613 24.1868 41.7002L22.7099 37.3737C22.4964 36.7482 21.8304 36.3932 21.1854 36.5614C20.5028 36.739 20.098 37.4345 20.2851 38.1085L20.3491 38.3378C20.9626 40.5462 20.4652 42.9125 19.0123 44.6954C17.4778 46.5785 15.2563 47.7883 12.8277 48.0632L10.0255 48.3801L12.0347 42.7874L9.5233 35.3309L11.2067 34.8528C10.6889 33.5105 10.4022 32.061 10.4022 30.5461C10.4022 30.2976 10.4121 30.0513 10.427 29.8066L7.87461 29.8349C7.98281 29.2072 8.10629 28.6069 8.24217 28.0287H0.008911C-0.0127278 26.9191 0.00603709 25.8542 0.0544062 24.8224C0.872863 24.8196 1.76579 24.8111 2.6603 24.7925C5.72028 24.7402 8.77294 24.5721 8.77294 24.5721" fill="#1EB65F"/>
</svg>
