<svg width="302" height="60" viewBox="0 0 302 60" fill="none" xmlns="http://www.w3.org/2000/svg">
<path d="M8.77294 24.5721C8.77294 24.5721 5.71519 24.5828 2.66252 24.4772C1.77437 24.4498 0.889091 24.4127 0.0769986 24.3739C0.321072 20.1132 1.1529 16.518 2.41368 13.5096C4.29976 13.9124 5.89944 14.3178 5.89944 14.3178C5.89944 14.3178 4.34876 13.8142 2.5031 13.2904C5.79666 5.62818 11.8915 1.82857 18.0563 0.53159L18.7908 7.4439L18.5534 0.432059C22.0757 -0.232494 25.5968 -0.0942273 28.6072 0.599302C28.4092 1.48936 28.1582 2.57376 27.8816 3.65531C27.2461 6.1951 26.4751 8.70213 26.4751 8.70213C26.4751 8.70213 27.397 6.2458 28.1881 3.74097C28.5311 2.67454 28.849 1.60212 29.102 0.720563C30.955 1.19362 32.597 1.8777 33.8994 2.71265L29.6 15.4749C30.9037 15.7861 31.7009 16.0843 31.7009 16.0843L30.5184 20.1813C32.3099 21.3195 33.789 22.8722 34.807 24.6977C35.9386 23.5916 36.8461 22.2666 37.4616 20.7904C37.4616 21.0389 41.6051 47.0752 41.6051 47.0752L40.4735 46.1294L38.7173 37.3816L33.6318 35.4553C33.1994 37.345 34.2364 39.2621 36.0656 39.9535L38.4662 40.8612L40.1604 50.6884C40.8048 54.4275 42.9006 57.7689 46 60H44.3984C36.6581 60 29.3146 56.6105 24.3399 50.7413L24.6393 49.3416C25.1831 46.8003 25.0269 44.1613 24.1868 41.7002L22.7099 37.3737C22.4964 36.7482 21.8304 36.3932 21.1854 36.5614C20.5028 36.739 20.098 37.4345 20.2851 38.1085L20.3491 38.3378C20.9626 40.5462 20.4652 42.9125 19.0123 44.6954C17.4778 46.5785 15.2563 47.7883 12.8277 48.0632L10.0255 48.3801L12.0347 42.7874L9.5233 35.3309L11.2067 34.8528C10.6889 33.5104 10.4022 32.061 10.4022 30.5461C10.4022 30.2976 10.4121 30.0513 10.427 29.8066L7.87461 29.8349C7.98281 29.2072 8.10629 28.6069 8.24217 28.0287H0.00891112C-0.0127277 26.9191 0.00603721 25.8542 0.0544064 24.8224C0.872863 24.8196 1.76579 24.8111 2.6603 24.7925C5.72028 24.7402 8.77294 24.5721 8.77294 24.5721Z" fill="#1EB65F"/>
<path d="M76.409 42.2C77.593 42.2 78.425 41.864 78.905 41.192C79.385 40.52 79.625 39.768 79.625 38.936V16.952C79.625 16.152 79.385 15.416 78.905 14.744C78.425 14.072 77.593 13.736 76.409 13.736H65.177L65.129 45.032C65.129 45.736 64.857 46.296 64.313 46.712C63.769 47.128 63.097 47.336 62.297 47.336C60.409 47.336 59.465 46.568 59.465 45.032V11.768C59.465 10.616 59.753 9.848 60.329 9.46399C60.937 9.08 61.657 8.888 62.489 8.888H77.609C78.441 8.888 79.305 9.064 80.201 9.416C81.097 9.768 81.961 10.216 82.793 10.76H82.745C83.577 11.368 84.217 12.168 84.665 13.16C85.113 14.12 85.337 15.24 85.337 16.52V39.32C85.337 41.912 84.473 43.848 82.745 45.128C81.913 45.736 81.049 46.216 80.153 46.568C79.289 46.888 78.441 47.048 77.609 47.048H69.545C69.001 47.048 68.569 46.824 68.249 46.376C67.961 45.928 67.817 45.336 67.817 44.6C67.817 43 68.505 42.2 69.881 42.2H76.409Z" fill="#1EB65F"/>
<path d="M95.6776 47.048C94.4936 47.048 93.6936 46.744 93.2776 46.136C92.8616 45.528 92.6536 44.856 92.6536 44.12V11.768C92.6536 11.032 92.8616 10.376 93.2776 9.8C93.6936 9.192 94.4936 8.888 95.6776 8.888H112.382C113.566 8.888 114.19 9.688 114.254 11.288C114.318 12.92 113.694 13.736 112.382 13.736H98.3176V42.2H113.246C114.43 42.2 115.038 42.984 115.07 44.552C115.134 46.216 114.526 47.048 113.246 47.048H95.6776ZM110.606 27.176C110.606 28.296 110.206 29.24 109.406 30.008C108.638 30.776 107.694 31.16 106.574 31.16C105.486 31.16 104.558 30.776 103.79 30.008C103.022 29.24 102.638 28.296 102.638 27.176C102.638 26.056 103.022 25.112 103.79 24.344C104.558 23.576 105.486 23.192 106.574 23.192C107.694 23.192 108.638 23.576 109.406 24.344C110.206 25.112 110.606 26.056 110.606 27.176Z" fill="#1EB65F"/>
<path d="M131.542 47.24C130.902 47.24 130.214 47.144 129.478 46.952C128.774 46.728 128.262 46.328 127.942 45.752C127.206 43.256 126.438 40.696 125.638 38.072C124.838 35.448 124.038 32.872 123.238 30.344C122.342 27.368 121.382 24.28 120.358 21.08C119.334 17.848 118.374 14.76 117.478 11.816C117.286 11.112 117.398 10.504 117.814 9.992C118.23 9.448 118.822 9.048 119.59 8.792C120.07 8.664 120.486 8.6 120.838 8.6C121.926 8.6 122.63 9.144 122.95 10.232L126.502 21.608C126.822 22.76 127.19 24.024 127.606 25.4C128.054 26.776 128.502 28.184 128.95 29.624C129.398 31.064 129.846 32.504 130.294 33.944C130.742 35.352 131.158 36.664 131.542 37.88C132.15 35.864 132.806 33.688 133.51 31.352C134.246 28.984 134.982 26.584 135.718 24.152C136.486 21.72 137.238 19.32 137.974 16.952C138.71 14.552 139.398 12.312 140.038 10.232C140.39 9.144 141.078 8.6 142.102 8.6C142.486 8.6 142.934 8.664 143.446 8.792C145.206 9.272 145.894 10.28 145.51 11.816C143.782 17.416 142.038 23.064 140.278 28.76C138.518 34.456 136.774 40.12 135.046 45.752C134.79 46.392 134.31 46.808 133.606 47C132.934 47.16 132.246 47.24 131.542 47.24Z" fill="#1EB65F"/>
<path d="M160.49 32.888C159.946 32.888 159.514 32.68 159.194 32.264C158.906 31.816 158.762 31.224 158.762 30.488C158.762 28.856 159.434 28.04 160.778 28.04H165.866C167.05 28.04 167.882 27.704 168.362 27.032C168.874 26.36 169.13 25.624 169.13 24.824V16.952C169.13 16.152 168.874 15.416 168.362 14.744C167.882 14.072 167.05 13.736 165.866 13.736H155.786V45.08C155.786 46.616 154.826 47.384 152.906 47.384C151.05 47.384 150.122 46.616 150.122 45.08V11.768C150.122 10.616 150.41 9.848 150.986 9.46399C151.562 9.08 152.266 8.888 153.098 8.888H167.114C167.914 8.888 168.762 9.064 169.658 9.416C170.554 9.768 171.418 10.216 172.25 10.76H172.202C173.034 11.368 173.674 12.168 174.122 13.16C174.57 14.12 174.794 15.24 174.794 16.52V25.208C174.794 27.8 173.93 29.736 172.202 31.016C171.37 31.624 170.522 32.088 169.658 32.408C168.794 32.728 167.946 32.888 167.114 32.888H160.49Z" fill="#1EB65F"/>
<path d="M194.714 13.592L184.202 45.848V45.8C184.01 46.28 183.738 46.68 183.386 47C183.066 47.288 182.666 47.432 182.186 47.432C181.93 47.432 181.674 47.4 181.418 47.336C181.194 47.304 180.954 47.256 180.698 47.192H180.746C178.922 46.616 178.25 45.592 178.73 44.12L189.674 10.856C189.834 10.344 190.106 9.912 190.49 9.56C190.906 9.208 191.386 9 191.93 8.936C192.474 8.84 193.002 8.776 193.514 8.744C194.026 8.68 194.426 8.648 194.714 8.648C195.002 8.648 195.402 8.68 195.914 8.744C196.426 8.776 196.954 8.824 197.498 8.888C197.946 8.952 198.378 9.192 198.794 9.608C199.242 10.024 199.578 10.44 199.802 10.856C201.594 16.36 203.402 21.912 205.226 27.512C207.082 33.08 208.906 38.616 210.698 44.12C211.146 45.592 210.474 46.616 208.682 47.192C208.426 47.256 208.186 47.304 207.962 47.336C207.77 47.4 207.546 47.432 207.29 47.432C206.842 47.432 206.426 47.288 206.042 47C205.69 46.68 205.434 46.28 205.274 45.8V45.848L194.714 13.592ZM198.314 35.48C198.314 36.504 197.946 37.384 197.21 38.12C196.506 38.824 195.642 39.176 194.618 39.176C193.594 39.176 192.73 38.824 192.026 38.12C191.322 37.384 190.97 36.504 190.97 35.48C190.97 34.456 191.322 33.592 192.026 32.888C192.73 32.152 193.594 31.784 194.618 31.784C195.642 31.784 196.506 32.152 197.21 32.888C197.946 33.592 198.314 34.456 198.314 35.48Z" fill="#1EB65F"/>
<path d="M218.02 47.048C216.836 47.048 216.036 46.744 215.62 46.136C215.204 45.528 214.996 44.856 214.996 44.12V10.952C214.996 9.416 215.924 8.648 217.78 8.648C219.7 8.648 220.66 9.416 220.66 10.952V42.2H236.692C237.844 42.2 238.42 42.984 238.42 44.552C238.484 46.216 237.908 47.048 236.692 47.048H218.02Z" fill="#1EB65F"/>
<path d="M255.464 13.592L244.952 45.848V45.8C244.76 46.28 244.488 46.68 244.136 47C243.816 47.288 243.416 47.432 242.936 47.432C242.68 47.432 242.424 47.4 242.168 47.336C241.944 47.304 241.704 47.256 241.448 47.192H241.496C239.672 46.616 239 45.592 239.48 44.12L250.424 10.856C250.584 10.344 250.856 9.912 251.24 9.56C251.656 9.208 252.136 9 252.68 8.936C253.224 8.84 253.752 8.776 254.264 8.744C254.776 8.68 255.176 8.648 255.464 8.648C255.752 8.648 256.152 8.68 256.664 8.744C257.176 8.776 257.704 8.824 258.248 8.888C258.696 8.952 259.128 9.192 259.544 9.608C259.992 10.024 260.328 10.44 260.552 10.856C262.344 16.36 264.152 21.912 265.976 27.512C267.832 33.08 269.656 38.616 271.448 44.12C271.896 45.592 271.224 46.616 269.432 47.192C269.176 47.256 268.936 47.304 268.712 47.336C268.52 47.4 268.296 47.432 268.04 47.432C267.592 47.432 267.176 47.288 266.792 47C266.44 46.68 266.184 46.28 266.024 45.8V45.848L255.464 13.592ZM259.064 35.48C259.064 36.504 258.696 37.384 257.96 38.12C257.256 38.824 256.392 39.176 255.368 39.176C254.344 39.176 253.48 38.824 252.776 38.12C252.072 37.384 251.72 36.504 251.72 35.48C251.72 34.456 252.072 33.592 252.776 32.888C253.48 32.152 254.344 31.784 255.368 31.784C256.392 31.784 257.256 32.152 257.96 32.888C258.696 33.592 259.064 34.456 259.064 35.48Z" fill="#1EB65F"/>
<path d="M293.938 25.064C294.77 25.064 295.634 25.24 296.53 25.592C297.426 25.944 298.29 26.408 299.122 26.984H299.074C299.906 27.56 300.546 28.344 300.994 29.336C301.442 30.328 301.666 31.464 301.666 32.744V39.32C301.666 41.912 300.802 43.848 299.074 45.128C298.242 45.736 297.378 46.216 296.482 46.568C295.618 46.888 294.77 47.048 293.938 47.048H283.474C282.642 47.048 281.778 46.888 280.882 46.568C280.018 46.216 279.17 45.736 278.338 45.128C276.61 43.848 275.746 41.912 275.746 39.32V36.152C275.746 34.648 276.69 33.896 278.578 33.896C280.498 33.896 281.458 34.648 281.458 36.152V38.936C281.458 39.768 281.698 40.52 282.178 41.192C282.658 41.864 283.49 42.2 284.674 42.2H292.738C293.922 42.2 294.754 41.864 295.234 41.192C295.714 40.52 295.954 39.768 295.954 38.936V33.128C295.954 32.328 295.714 31.592 295.234 30.92C294.754 30.216 293.922 29.864 292.738 29.864H283.474C281.81 29.864 280.098 29.256 278.338 28.04C276.61 26.696 275.746 24.76 275.746 22.232V16.52C275.746 15.24 275.97 14.12 276.418 13.16C276.866 12.168 277.506 11.368 278.338 10.76H278.29C279.122 10.216 279.986 9.768 280.882 9.416C281.778 9.064 282.642 8.888 283.474 8.888H293.938C294.77 8.888 295.634 9.064 296.53 9.416C297.426 9.768 298.29 10.216 299.122 10.76H299.074C299.906 11.368 300.546 12.168 300.994 13.16C301.442 14.12 301.666 15.24 301.666 16.52V19.352C301.666 20.856 300.706 21.608 298.786 21.608C296.898 21.608 295.954 20.856 295.954 19.352V16.952C295.954 16.152 295.714 15.416 295.234 14.744C294.754 14.072 293.922 13.736 292.738 13.736H284.674C283.49 13.736 282.658 14.072 282.178 14.744C281.698 15.416 281.458 16.152 281.458 16.952V21.848C281.458 22.68 281.698 23.432 282.178 24.104C282.658 24.744 283.49 25.064 284.674 25.064H293.938Z" fill="#1EB65F"/>
</svg>
